<svg width="54" height="54" viewBox="0 0 54 54" fill="none" xmlns="http://www.w3.org/2000/svg">
<path d="M26 19.2308C22.2727 19.2308 19.2309 22.2726 19.2309 25.9999C19.2309 29.7273 22.2727 32.7691 26 32.7691C29.7273 32.7691 32.7691 29.7273 32.7691 25.9999C32.7691 22.2726 29.7273 19.2308 26 19.2308ZM46.3023 25.9999C46.3023 23.1968 46.3277 20.4191 46.1703 17.621C46.0129 14.371 45.2715 11.4867 42.8949 9.1101C40.5133 6.72846 37.634 5.99214 34.384 5.83471C31.5809 5.67729 28.8031 5.70268 26.0051 5.70268C23.202 5.70268 20.4242 5.67729 17.6262 5.83471C14.3762 5.99214 11.4918 6.73354 9.11523 9.1101C6.73359 11.4917 5.99726 14.371 5.83984 17.621C5.68242 20.4242 5.70781 23.2019 5.70781 25.9999C5.70781 28.798 5.68242 31.5808 5.83984 34.3789C5.99726 37.6289 6.73867 40.5132 9.11523 42.8898C11.4969 45.2714 14.3762 46.0078 17.6262 46.1652C20.4293 46.3226 23.207 46.2972 26.0051 46.2972C28.8082 46.2972 31.5859 46.3226 34.384 46.1652C37.634 46.0078 40.5184 45.2663 42.8949 42.8898C45.2766 40.5081 46.0129 37.6289 46.1703 34.3789C46.3328 31.5808 46.3023 28.8031 46.3023 25.9999ZM26 36.4152C20.2363 36.4152 15.5848 31.7636 15.5848 25.9999C15.5848 20.2363 20.2363 15.5847 26 15.5847C31.7637 15.5847 36.4152 20.2363 36.4152 25.9999C36.4152 31.7636 31.7637 36.4152 26 36.4152ZM36.8418 17.5906C35.4961 17.5906 34.4094 16.5039 34.4094 15.1581C34.4094 13.8124 35.4961 12.7257 36.8418 12.7257C38.1875 12.7257 39.2742 13.8124 39.2742 15.1581C39.2746 15.4777 39.212 15.7942 39.0899 16.0895C38.9678 16.3848 38.7886 16.6531 38.5627 16.879C38.3367 17.105 38.0684 17.2841 37.7731 17.4062C37.4778 17.5283 37.1613 17.591 36.8418 17.5906Z" fill="#999999"/>
</svg>
