<svg width="54" height="54" viewBox="0 0 54 54" fill="none" xmlns="http://www.w3.org/2000/svg">
<g clip-path="url(#clip0_1_667)">
<path fill-rule="evenodd" clip-rule="evenodd" d="M52.7625 13.383C53.136 12.1545 52.7625 11.25 50.9738 11.25H45.0675C43.5645 11.25 42.8715 12.0308 42.4957 12.8925C42.4957 12.8925 39.492 20.0835 35.2373 24.7545C33.8603 26.109 33.2347 26.5388 32.4832 26.5388C32.1075 26.5388 31.5427 26.109 31.5427 24.8783V13.383C31.5427 11.907 31.1287 11.25 29.8778 11.25H20.5898C19.6515 11.25 19.0868 11.934 19.0868 12.5843C19.0868 13.9815 21.2153 14.3055 21.4335 18.2385V26.784C21.4335 28.6583 21.0892 28.998 20.3377 28.998C18.3352 28.998 13.464 21.7733 10.5728 13.5068C10.0125 11.898 9.4455 11.25 7.93575 11.25H2.025C0.3375 11.25 0 12.0308 0 12.8925C0 14.427 2.0025 22.05 9.32625 32.1323C14.2087 39.0173 21.0825 42.75 27.3442 42.75C31.0995 42.75 31.563 41.922 31.563 40.4933V35.289C31.563 33.6308 31.9185 33.3 33.1087 33.3C33.9863 33.3 35.487 33.732 38.9925 37.0508C42.9975 40.986 43.6567 42.75 45.9113 42.75H51.8175C53.505 42.75 54.351 41.922 53.865 40.284C53.3295 38.655 51.417 36.2903 48.8813 33.4845C47.5042 31.887 45.4388 30.1658 44.811 29.304C43.9357 28.1993 44.1855 27.7065 44.811 26.7233C44.811 26.7233 52.011 16.7648 52.7603 13.383H52.7625Z" fill="#999999"/>
</g>
<defs>
<clipPath id="clip0_1_667">
<rect width="54" height="54" fill="white"/>
</clipPath>
</defs>
</svg>
