<svg width="54" height="54" viewBox="0 0 54 54" fill="none" xmlns="http://www.w3.org/2000/svg">
<g clip-path="url(#clip0_1_672)">
<path d="M52.875 14.6407C52.5692 13.5499 51.9736 12.5625 51.1515 11.7832C50.3061 10.9799 49.27 10.4054 48.141 10.1137C43.9155 8.99993 26.9865 8.99993 26.9865 8.99993C19.929 8.91963 12.8732 9.27279 5.85899 10.0574C4.72991 10.3707 3.69575 10.9581 2.84848 11.7674C2.01598 12.5684 1.41298 13.5562 1.09798 14.6384C0.341294 18.7148 -0.0263581 22.8539 -1.51463e-05 26.9999C-0.0270151 31.1422 0.339735 35.2799 1.09798 39.3614C1.40623 40.4392 2.00698 41.4224 2.84173 42.2167C3.67648 43.0109 4.71599 43.5847 5.85899 43.8884C10.1407 44.9999 26.9865 44.9999 26.9865 44.9999C34.053 45.0803 41.1177 44.7272 48.141 43.9424C49.27 43.6507 50.3061 43.0762 51.1515 42.2729C51.984 41.4787 52.5757 40.4909 52.8727 39.4154C53.6492 35.3406 54.0267 31.1998 54 27.0517C54.0584 22.886 53.6813 18.7257 52.875 14.6384V14.6407ZM21.6045 34.7039V19.2982L35.6895 27.0022L21.6045 34.7039Z" fill="#999999"/>
</g>
<defs>
<clipPath id="clip0_1_672">
<rect width="54" height="54" fill="white"/>
</clipPath>
</defs>
</svg>
