<svg width="54" height="54" viewBox="0 0 54 54" fill="none" xmlns="http://www.w3.org/2000/svg">
<path d="M0 27C0 38.5267 7.22475 48.3683 17.3925 52.2405C17.145 50.1323 16.8818 46.656 17.4487 44.217C17.937 42.12 20.601 30.8565 20.601 30.8565C20.601 30.8565 19.7977 29.2477 19.7977 26.865C19.7977 23.13 21.9622 20.34 24.66 20.34C26.955 20.34 28.062 22.0613 28.062 24.1245C28.062 26.4307 26.5928 29.8778 25.8345 33.075C25.2023 35.7502 27.1778 37.9327 29.8148 37.9327C34.5915 37.9327 38.2658 32.895 38.2658 25.623C38.2658 19.1857 33.6397 14.688 27.036 14.688C19.3905 14.688 14.9018 20.4233 14.9018 26.352C14.9018 28.6628 15.7905 31.1377 16.902 32.4855C16.9968 32.5873 17.0637 32.7118 17.0964 32.8469C17.1291 32.9821 17.1265 33.1234 17.0887 33.2573C16.884 34.1077 16.4295 35.9325 16.3417 36.306C16.2225 36.7965 15.9525 36.9022 15.4417 36.6637C12.0848 35.1022 9.98775 30.195 9.98775 26.253C9.98775 17.7728 16.146 9.98775 27.7448 9.98775C37.0688 9.98775 44.316 16.632 44.316 25.5105C44.316 34.7738 38.4772 42.2302 30.3682 42.2302C27.6435 42.2302 25.0852 40.8127 24.2078 39.141C24.2078 39.141 22.86 44.2755 22.5338 45.531C21.8993 47.97 20.1397 51.057 19.0485 52.8098C21.564 53.5838 24.2325 54 27 54C41.9108 54 54 41.9108 54 27C54 12.0893 41.9108 0 27 0C12.0893 0 0 12.0893 0 27Z" fill="#999999"/>
</svg>
