<svg width="256" height="68" viewBox="0 0 256 68" fill="none" xmlns="http://www.w3.org/2000/svg">
<g clip-path="url(#clip0_1_577)">
<path d="M99.1903 26.7243H104.819V33.0581H99.4084V50.0079H91.1182V33.0581H87.6712V26.7243H91.1182V26.0998C91.1182 23.1559 91.9763 20.8216 93.6925 19.0969C95.4379 17.3722 97.8667 16.5098 100.979 16.5098C102.026 16.5098 103.044 16.6139 104.033 16.822C105.022 17.0302 105.837 17.3424 106.477 17.7587L104.426 23.7358C103.612 23.26 102.783 23.0221 101.939 23.0221C101.066 23.0221 100.383 23.2897 99.8884 23.825C99.423 24.3602 99.1903 25.1482 99.1903 26.189V26.7243Z" fill="white"/>
<path d="M120.369 50.4093C117.838 50.4093 115.555 49.8741 113.519 48.8036C111.483 47.7331 109.883 46.2462 108.719 44.3431C107.585 42.44 107.018 40.2841 107.018 37.8754C107.018 35.4965 107.585 33.3555 108.719 31.4524C109.883 29.5492 111.468 28.0773 113.475 27.0365C115.511 25.966 117.809 25.4307 120.369 25.4307C122.929 25.4307 125.227 25.966 127.263 27.0365C129.299 28.0773 130.885 29.5492 132.019 31.4524C133.154 33.3258 133.721 35.4668 133.721 37.8754C133.721 40.2841 133.154 42.44 132.019 44.3431C130.885 46.2462 129.299 47.7331 127.263 48.8036C125.227 49.8741 122.929 50.4093 120.369 50.4093ZM120.369 43.674C121.824 43.674 123.016 43.1685 123.947 42.1575C124.878 41.1167 125.343 39.6894 125.343 37.8754C125.343 36.0912 124.878 34.6936 123.947 33.6826C123.016 32.6716 121.824 32.166 120.369 32.166C118.915 32.166 117.722 32.6716 116.791 33.6826C115.86 34.6936 115.395 36.0912 115.395 37.8754C115.395 39.6894 115.86 41.1167 116.791 42.1575C117.722 43.1685 118.915 43.674 120.369 43.674Z" fill="white"/>
<path d="M150.302 50.4093C147.771 50.4093 145.488 49.8741 143.452 48.8036C141.415 47.7331 139.815 46.2462 138.652 44.3431C137.517 42.44 136.95 40.2841 136.95 37.8754C136.95 35.4965 137.517 33.3555 138.652 31.4524C139.815 29.5492 141.401 28.0773 143.408 27.0365C145.444 25.966 147.742 25.4307 150.302 25.4307C152.862 25.4307 155.16 25.966 157.196 27.0365C159.232 28.0773 160.817 29.5492 161.952 31.4524C163.086 33.3258 163.653 35.4668 163.653 37.8754C163.653 40.2841 163.086 42.44 161.952 44.3431C160.817 46.2462 159.232 47.7331 157.196 48.8036C155.16 49.8741 152.862 50.4093 150.302 50.4093ZM150.302 43.674C151.756 43.674 152.949 43.1685 153.88 42.1575C154.811 41.1167 155.276 39.6894 155.276 37.8754C155.276 36.0912 154.811 34.6936 153.88 33.6826C152.949 32.6716 151.756 32.166 150.302 32.166C148.847 32.166 147.655 32.6716 146.724 33.6826C145.793 34.6936 145.328 36.0912 145.328 37.8754C145.328 39.6894 145.793 41.1167 146.724 42.1575C147.655 43.1685 148.847 43.674 150.302 43.674Z" fill="white"/>
<path d="M193.499 16.9112V50.0079H185.601V47.5992C184.06 49.4726 181.747 50.4093 178.664 50.4093C176.511 50.4093 174.548 49.9038 172.773 48.8928C170.999 47.852 169.588 46.3801 168.541 44.4769C167.523 42.5738 167.014 40.3733 167.014 37.8754C167.014 35.3776 167.523 33.1919 168.541 31.3185C169.588 29.4154 170.999 27.9583 172.773 26.9473C174.548 25.9362 176.511 25.4307 178.664 25.4307C181.485 25.4307 183.667 26.2634 185.209 27.9286V16.9112H193.499ZM180.409 43.674C181.834 43.674 183.013 43.1685 183.943 42.1575C184.874 41.1167 185.34 39.6894 185.34 37.8754C185.34 36.0912 184.874 34.6936 183.943 33.6826C183.042 32.6716 181.864 32.166 180.409 32.166C178.955 32.166 177.762 32.6716 176.831 33.6826C175.9 34.6936 175.435 36.0912 175.435 37.8754C175.435 39.6894 175.9 41.1167 176.831 42.1575C177.762 43.1685 178.955 43.674 180.409 43.674Z" fill="white"/>
<path d="M227.325 44.0309H222.787V50.0079H214.366V44.0309H198.222V38.2769L211.922 18.7846H220.867L208.432 37.0279H214.628V31.72H222.787V37.0279H227.325V44.0309Z" fill="white"/>
<path d="M256 25.8322V50.0079H248.102V47.4208C247.23 48.4021 246.183 49.1455 244.961 49.6511C243.739 50.1566 242.445 50.4093 241.078 50.4093C238.023 50.4093 235.58 49.4875 233.747 47.6439C231.944 45.8002 231.042 43.0347 231.042 39.3474V25.8322H239.332V37.9646C239.332 39.7786 239.667 41.1018 240.336 41.9345C241.005 42.7671 241.979 43.1834 243.259 43.1834C244.568 43.1834 245.63 42.7225 246.444 41.8006C247.288 40.8491 247.71 39.4069 247.71 37.474V25.8322H256Z" fill="white"/>
<path fill-rule="evenodd" clip-rule="evenodd" d="M22.0874 58.0824C29.487 60.7109 36.8201 55.656 43.4673 51.4959C48.9881 48.0407 53.5737 43.5086 55.3709 37.2521C57.3359 30.4115 57.6654 22.7304 53.3626 17.0476C48.9208 11.1811 41.3318 8.76094 33.9772 8.99668C26.8659 9.22461 20.6453 12.9236 15.94 18.2471C10.7979 24.0646 6.47181 31.0979 7.65654 38.7749C8.94462 47.1217 14.1183 55.2516 22.0874 58.0824Z" fill="white" stroke="#E8E8E8" stroke-width="4.6758"/>
<path fill-rule="evenodd" clip-rule="evenodd" d="M37.5968 17.558C42.3011 19.7486 45.691 24.2618 45.1637 29.1831C44.6291 34.1716 40.4627 37.9047 35.3391 38.6254C30.5454 39.2997 26.0591 36.3927 23.6278 32.2124C21.1859 28.0138 20.9073 22.8129 24.1586 19.402C27.5008 15.8958 32.9906 15.4131 37.5968 17.558Z" fill="#FFD02B" stroke="#F9CA25" stroke-width="4.6758"/>
</g>
<defs>
<clipPath id="clip0_1_577">
<rect width="256" height="67.1896" fill="white" transform="translate(0 0.144501)"/>
</clipPath>
</defs>
</svg>
